<?xml version="1.0" encoding="iso-8859-1"?>
<!-- Generator: Adobe Illustrator 19.0.0, SVG Export Plug-In . SVG Version: 6.00 Build 0)  -->
<svg version="1.1" id="Layer_1" xmlns="http://www.w3.org/2000/svg" xmlns:xlink="http://www.w3.org/1999/xlink" x="0px" y="0px"
	 viewBox="0 0 479.901 479.901" style="enable-background:new 0 0 479.901 479.901;" xml:space="preserve">
<path style="fill:#2962FF;" d="M49.361,430.537C-14.21,366.974-6.319,264.385,55.58,211.77c28.228,20.337,67.366,17.4,92.273-7.507
	c16.489-16.489,23.672-39.371,20.126-61.651c44.145-55.8,128.188-61.545,179.524-10.217c51.366,51.366,45.553,135.416-10.21,179.524
	c-22.325-3.546-45.192,3.659-61.651,20.141c-24.907,24.9-27.836,64.038-7.499,92.265
	C215.618,486.081,113.067,494.251,49.361,430.537z"/>
<path style="fill:#2979FF;" d="M347.503,132.395c-51.336-51.32-135.379-45.583-179.531,10.217
	c3.546,22.287-3.629,45.161-20.126,61.651c-24.907,24.907-64.045,27.844-92.273,7.507c-61.899,52.608-69.798,155.196-6.219,218.767
	c0.271,0.279,0.572,0.489,0.851,0.783l298.059-298.067C348.007,132.974,347.781,132.673,347.503,132.395z"/>
<path style="fill:#1565C0;" d="M453.991,79.154c1.943-1.958,4.307-3.2,6.792-3.855l-17.438-17.446L432.691,68.5l17.446,17.446
	C450.799,83.469,452.034,81.097,453.991,79.154z"/>
<circle style="fill:#FFFFFF;" cx="464.638" cy="89.801" r="15.059"/>
<path style="fill:#1565C0;" d="M422.044,111.102c1.95-1.95,4.314-3.192,6.799-3.855l-17.438-17.438l-10.662,10.647l17.453,17.446
	C418.852,115.408,420.094,113.044,422.044,111.102z"/>
<circle style="fill:#FFFFFF;" cx="432.721" cy="121.748" r="15.059"/>
<path style="fill:#1565C0;" d="M404.591,19.115c-0.663,2.485-1.897,4.864-3.855,6.792c-1.95,1.958-4.307,3.2-6.792,3.855
	l17.438,17.453l10.647-10.654L404.591,19.115z"/>
<circle style="fill:#FFFFFF;" cx="390.097" cy="15.267" r="15.059"/>
<path style="fill:#1565C0;" d="M372.651,51.054c-0.663,2.485-1.897,4.856-3.855,6.799c-1.958,1.95-4.307,3.192-6.799,3.848
	l17.446,17.453L390.089,68.5L372.651,51.054z"/>
<circle style="fill:#FFFFFF;" cx="358.149" cy="47.207" r="15.059"/>
<g>
	<path style="fill:#1A3B7E;" d="M1.436,478.469c-5.323-5.323,0-10.647,90.511-133.105l42.586,42.586
		C12.083,478.469,6.759,483.792,1.436,478.469z"/>
	<path style="fill:#1A3B7E;" d="M453.502,4.124c6.234-5.685,15.827-5.466,21.783,0.497c5.956,5.948,6.174,15.541,0.482,21.775
		L262.308,260.169l-42.586-42.586L453.502,4.124z"/>
</g>
<g>
	<path style="fill:#0D57A1;" d="M205.137,413.054c-1.732,2.665-7.718,3.953-10.428,2.191c-10.985-7.1,0.783-22.528,21.896-47.518
		c16.384-19.396,31.857-37.715,29.478-53.911c-0.956-6.513-4.616-11.881-10.872-15.955c-9.72-6.34-24.734-3.411-31.247,6.611
		c-2.251,3.456-1.31,8.004,2.206,10.421c3.381,2.191,8.222,1.152,10.413-2.206c1.732-2.673,7.748-3.938,10.421-2.206
		c10.888,7.115-0.422,22.121-21.888,47.533c-16.384,19.396-31.849,37.707-29.47,53.911c0.693,4.661,2.793,8.779,6.257,12.25
		c11.58,11.603,29.018,7.62,35.87-2.899c2.244-3.456,1.31-8.004-2.191-10.413C212.199,408.649,207.328,409.695,205.137,413.054z"/>
	<path style="fill:#0D57A1;" d="M182.036,244.688c-4.066-6.249-9.434-9.909-15.955-10.865c-16.045-2.349-34.47,13.041-53.933,29.485
		c-23.68,19.998-40.147,33.25-47.503,21.865c-1.845-2.824-0.632-8.576,2.199-10.413c3.396-2.214,4.555-6.822,2.146-10.511
		c-2.266-3.29-7.048-4.277-10.368-2.108c-10.368,6.754-14.667,24.094-2.899,35.87c4.427,4.42,9.796,6.505,15.646,6.505h0.008
		c15.337,0,32.422-14.441,50.515-29.726c27.347-23.093,40.712-32.301,47.526-21.873c1.852,2.839,0.655,8.561-2.206,10.413
		c-3.471,2.266-4.457,6.935-2.146,10.504c2.259,3.298,7.032,4.292,10.368,2.123C185.274,269.528,188.444,254.522,182.036,244.688z"
		/>
	<path style="fill:#0D57A1;" d="M475.285,4.621c-5.956-5.963-15.541-6.182-21.783-0.497L219.721,217.59l22.114,22.106L476.022,5.517
		C475.774,5.215,475.563,4.892,475.285,4.621z"/>
	<path style="fill:#0D57A1;" d="M91.947,345.364C1.436,467.815-3.887,473.146,1.436,478.469c0.286,0.279,0.572,0.527,0.873,0.745
		L114.053,367.47L91.947,345.364z"/>
</g>
<g>
</g>
<g>
</g>
<g>
</g>
<g>
</g>
<g>
</g>
<g>
</g>
<g>
</g>
<g>
</g>
<g>
</g>
<g>
</g>
<g>
</g>
<g>
</g>
<g>
</g>
<g>
</g>
<g>
</g>
</svg>
